<svg xmlns="http://www.w3.org/2000/svg" viewBox="0 0 24 24" fill="white"><path d="M11.979 0C5.678 0 .511 4.86.022 10.95l6.432 2.658a3.387 3.387 0 011.912-.588c.063 0 .125.002.188.006l2.861-4.142V8.83a4.528 4.528 0 014.524-4.524 4.528 4.528 0 014.523 4.524 4.528 4.528 0 01-4.523 4.524h-.105l-4.076 2.911c0 .052.004.105.004.159a3.392 3.392 0 01-3.39 3.393 3.406 3.406 0 01-3.328-2.726L.458 15.167A12.015 12.015 0 0011.979 24c6.627 0 12-5.373 12-12s-5.372-12-12-12zM7.54 18.21l-1.473-.61a2.541 2.541 0 004.618-.98 2.54 2.54 0 00-2.54-2.541 2.52 2.52 0 00-1.14.272l1.522.63a1.868 1.868 0 01-1.426 3.451l-.002-.001.441-.221zm8.4-6.065a3.02 3.02 0 003.015-3.015 3.02 3.02 0 00-3.015-3.015 3.02 3.02 0 00-3.015 3.015 3.02 3.02 0 003.015 3.015zm-.005-5.27a2.258 2.258 0 110 4.515 2.258 2.258 0 010-4.515z"/></svg>