<svg xmlns="http://www.w3.org/2000/svg" viewBox="0 0 24 24" fill="white"><path d="M4.102 21.033A11.947 11.947 0 0012 24a11.96 11.96 0 007.898-2.967c1.58-1.381.208-4.823-2.504-8.368C14.638 9.448 12.756 7.9 12 7.9c-.756 0-2.638 1.548-5.394 4.765-2.712 3.545-4.084 6.987-2.504 8.368zM12 2.4a9.57 9.57 0 00-4.56 1.152c1.735.677 3.174 1.773 3.885 2.515.33.345.675.345 1.005.013A12.4 12.4 0 0116.56 3.55 9.57 9.57 0 0012 2.4zM1.59 6.985C.54 8.672 0 10.577 0 12.6c0 2.86 1.005 5.49 2.682 7.554.192-.82.682-1.996 1.678-3.543C6.182 13.863 7.46 12.3 8.538 11.1 6.254 8.547 3.876 7.14 1.59 6.985zm20.82 0c-2.286.155-4.664 1.562-6.948 4.115 1.078 1.2 2.356 2.763 4.178 5.511.996 1.547 1.486 2.723 1.678 3.543A11.94 11.94 0 0024 12.6c0-2.023-.54-3.928-1.59-5.615z"/></svg>