<svg xmlns="http://www.w3.org/2000/svg" viewBox="0 0 24 24" fill="white"><path d="M3.537 0C2.165 0 1.66.506 1.66 1.879V18.44a4.262 4.262 0 00.04.585c.126.767.534 1.274 1.276 1.456.148.037 3.896 1.062 3.896 1.062a.327.327 0 00.11.019c.19 0 .305-.168.305-.168l6.848-8.997.057-.074 2.381-3.126.018-.023s.142-.18.142-.39a.46.46 0 00-.143-.348c-.1-.088-2.365-1.584-2.365-1.584a.391.391 0 00-.217-.067.393.393 0 00-.303.156l-4.36 5.721-3.04-2.19V3.373h9.882v2.404l-3.575-.005s-.352-.006-.352.353.352.353.352.353h4.574s.953-.006.953-.95V1.878C18.14.506 17.634 0 16.262 0H3.537zm3.14 13.063l3.924 2.831-3.924 5.15V13.063z"/></svg>