<svg xmlns="http://www.w3.org/2000/svg" viewBox="0 0 24 24" fill="white"><path d="M8.985 2.596v17.548l3.915 1.261V6.688c0-.69.304-1.151.794-.991.636.181.76.814.76 1.505v5.876c2.441 1.193 4.362-.002 4.362-3.153 0-3.093-1.258-4.15-5.003-5.564-1.907-.718-3.789-1.393-4.828-1.756zM22.07 15.553c-2.127.588-4.35.404-5.889-.263l-.576.249-3.29 1.3-.143.055v2.07l5.803-2.295c.474-.183.84-.076.84.248 0 .325-.366.59-.84.775L12.172 20l-3.187 1.263V23.5l8.96-3.538c.856-.338 1.86-.28 2.685.14.825.42 2.09.267 2.829-.089.74-.357 1.308-.97.541-1.417-.768-.449-1.396-.586-1.93-.413v-2.63zM1.93 16.087c-1.08.353-1.674.979-1.93 1.558v1.762l5.02-1.982c.474-.183.84-.076.84.248 0 .325-.366.59-.84.775L0 20.661v.833c.39.232 1.332.418 2.288.095l5.632-2.227c.856-.337.907-1.078.081-1.498-.826-.42-2.39-.569-3.776-.137l-2.295.909v-2.549z"/></svg>